<svg id="Layer_1" enable-background="new 0 0 256 256" height="512" viewBox="0 0 256 256" width="512" xmlns="http://www.w3.org/2000/svg"><g><path d="m25.568 16.54s2.411 8.954 9.352 9.369c0 0-9.266 3.201-9.422 10.046 0 0-1.824-9.6-9.142-9.944-.001-.001 8.523-1.292 9.212-9.471z" fill="#d7e057"/><path d="m25.497 37.455c-.714 0-1.337-.507-1.473-1.22-.016-.082-1.704-8.442-7.739-8.726-.771-.037-1.388-.651-1.428-1.421-.04-.771.511-1.445 1.273-1.561.296-.047 7.363-1.243 7.941-8.114.062-.726.636-1.303 1.361-1.368.725-.059 1.392.399 1.581 1.102.022.079 2.229 7.92 7.995 8.265.714.043 1.299.584 1.396 1.293s-.32 1.388-.996 1.622c-.081.028-8.282 2.952-8.412 8.662-.017.767-.611 1.397-1.376 1.461-.04.003-.082.005-.123.005zm-4.519-11.528c2.107 1.333 3.523 3.394 4.447 5.28 1.376-2.233 3.516-3.872 5.365-4.973-2.287-1.27-3.885-3.35-4.942-5.224-1.173 2.287-3.015 3.876-4.87 4.917z" fill="#3a312a"/><path d="m171.551 148.98h64.848c1.793 0 3.246-1.453 3.246-3.246v-8.643c0-1.793-1.453-3.246-3.246-3.246h-174.523c-1.793 0-3.246 1.453-3.246 3.246v8.643c0 1.793 1.453 3.246 3.246 3.246h97.167z" fill="#ed6e7a"/><path d="m236.398 150.48h-64.848c-.828 0-1.5-.671-1.5-1.5s.672-1.5 1.5-1.5h64.848c.963 0 1.746-.783 1.746-1.746v-8.643c0-.963-.783-1.746-1.746-1.746h-174.522c-.963 0-1.746.783-1.746 1.746v8.643c0 .963.783 1.746 1.746 1.746h97.167c.828 0 1.5.671 1.5 1.5s-.672 1.5-1.5 1.5h-97.167c-2.617 0-4.746-2.129-4.746-4.746v-8.643c0-2.617 2.129-4.746 4.746-4.746h174.522c2.617 0 4.746 2.129 4.746 4.746v8.643c.001 2.617-2.128 4.746-4.746 4.746z" fill="#3a312a"/><path d="m69.101 63.477v70.368h160.073v-109.738c0-4.179-3.388-7.567-7.567-7.567h-144.939c-4.179 0-7.567 3.388-7.567 7.567v26.402z" fill="#fae6ca"/><path d="m229.174 135.345h-160.073c-.828 0-1.5-.671-1.5-1.5v-70.368c0-.829.672-1.5 1.5-1.5s1.5.671 1.5 1.5v68.869h157.073v-108.239c0-3.346-2.722-6.067-6.067-6.067h-144.939c-3.346 0-6.067 2.722-6.067 6.067v26.402c0 .829-.672 1.5-1.5 1.5s-1.5-.671-1.5-1.5v-26.402c0-5 4.067-9.067 9.067-9.067h144.938c5 0 9.067 4.067 9.067 9.067v109.738c.001.829-.671 1.5-1.499 1.5z" fill="#3a312a"/><path d="m186.463 133.845h26v-8.662c0-2.874-2.33-5.204-5.204-5.204h-15.592c-2.874 0-5.204 2.33-5.204 5.204z" fill="#8ac3da"/><g fill="#3a312a"><path d="m212.463 135.345h-26c-.828 0-1.5-.671-1.5-1.5v-8.662c0-3.696 3.008-6.704 6.704-6.704h15.593c3.696 0 6.703 3.007 6.703 6.704v8.662c0 .829-.672 1.5-1.5 1.5zm-24.5-3h23v-7.162c0-2.042-1.661-3.704-3.703-3.704h-15.593c-2.042 0-3.704 1.662-3.704 3.704z"/><path d="m131.225 46.919h-45.413c-.828 0-1.5-.671-1.5-1.5s.672-1.5 1.5-1.5h45.413c.828 0 1.5.671 1.5 1.5s-.672 1.5-1.5 1.5z"/><path d="m131.225 62.294h-45.413c-.828 0-1.5-.671-1.5-1.5s.672-1.5 1.5-1.5h45.413c.828 0 1.5.671 1.5 1.5s-.672 1.5-1.5 1.5z"/><path d="m131.225 77.669h-45.413c-.828 0-1.5-.671-1.5-1.5s.672-1.5 1.5-1.5h45.413c.828 0 1.5.671 1.5 1.5s-.672 1.5-1.5 1.5z"/><path d="m131.225 93.044h-45.413c-.828 0-1.5-.671-1.5-1.5s.672-1.5 1.5-1.5h45.413c.828 0 1.5.671 1.5 1.5s-.672 1.5-1.5 1.5z"/><path d="m131.225 108.419h-45.413c-.828 0-1.5-.671-1.5-1.5s.672-1.5 1.5-1.5h45.413c.828 0 1.5.671 1.5 1.5s-.672 1.5-1.5 1.5z"/></g><path d="m149.389 39.88h41.99v30h-41.99z" fill="#ed6e7a"/><path d="m191.38 71.38h-41.99c-.828 0-1.5-.671-1.5-1.5v-30c0-.829.672-1.5 1.5-1.5h41.99c.828 0 1.5.671 1.5 1.5v30c0 .829-.672 1.5-1.5 1.5zm-40.49-3h38.99v-27h-38.99z" fill="#3a312a"/><path d="m149.389 83.38h63.074v29.078h-63.074z" fill="#d4d853"/><path d="m212.463 113.958h-63.073c-.828 0-1.5-.671-1.5-1.5v-29.078c0-.829.672-1.5 1.5-1.5h63.073c.828 0 1.5.671 1.5 1.5v29.078c0 .829-.672 1.5-1.5 1.5zm-61.573-3h60.073v-26.078h-60.073z" fill="#3a312a"/><path d="m47.267 26.217s3.408 12.659 13.222 13.246c0 0-13.1 4.525-13.321 14.202 0 0-2.579-13.572-12.925-14.059-.001 0 12.05-1.826 13.024-13.389z" fill="#d7e057"/><path d="m47.166 55.165c-.713 0-1.335-.506-1.473-1.217-.024-.124-2.494-12.418-11.521-12.843-.771-.037-1.388-.651-1.428-1.421-.04-.771.511-1.445 1.274-1.561.441-.069 10.895-1.817 11.754-12.032.062-.725.635-1.301 1.359-1.367.735-.058 1.392.399 1.584 1.102.031.116 3.259 11.626 11.863 12.14.714.043 1.297.584 1.396 1.292.098.708-.318 1.388-.994 1.623-.121.042-12.118 4.31-12.312 12.819-.018.767-.611 1.396-1.375 1.459-.043.004-.085.006-.127.006zm-7.741-15.73c3.878 1.969 6.23 5.746 7.587 8.876 2.026-4.021 5.942-6.787 8.949-8.427-4.134-1.842-6.783-5.651-8.334-8.722-1.793 4.36-5.272 6.868-8.202 8.273z" fill="#3a312a"/><path d="m25.568 43.197s2.411 8.954 9.352 9.369c0 0-9.266 3.201-9.422 10.045 0 0-1.824-9.6-9.142-9.944-.001.001 8.523-1.291 9.212-9.47z" fill="#d7e057"/><path d="m25.497 64.112c-.714 0-1.337-.507-1.473-1.22-.016-.082-1.704-8.442-7.739-8.726-.771-.037-1.388-.651-1.428-1.421-.04-.771.511-1.445 1.273-1.561.296-.047 7.363-1.243 7.941-8.114.062-.726.636-1.303 1.361-1.368.725-.06 1.392.399 1.581 1.102.022.079 2.229 7.919 7.995 8.264.714.043 1.299.584 1.396 1.293s-.32 1.388-.996 1.622c-.081.028-8.282 2.953-8.412 8.662-.017.767-.611 1.398-1.376 1.461-.04.004-.082.006-.123.006zm-4.519-11.528c2.107 1.333 3.523 3.394 4.447 5.28 1.376-2.232 3.515-3.872 5.365-4.973-2.287-1.269-3.885-3.35-4.942-5.224-1.173 2.288-3.015 3.876-4.87 4.917z" fill="#3a312a"/><path d="m44.189 227.45v5.777c0 3.442-2.791 6.233-6.241 6.233h-1.277c-3.442 0-6.233-2.791-6.233-6.233v-5.777z" fill="#87796f"/><path d="m37.948 240.96h-1.277c-4.265 0-7.733-3.469-7.733-7.733v-5.777c0-.829.672-1.5 1.5-1.5h13.751c.828 0 1.5.671 1.5 1.5v5.777c-.001 4.265-3.473 7.733-7.741 7.733zm-6.01-12.01v4.277c0 2.61 2.123 4.733 4.733 4.733h1.277c2.614 0 4.74-2.123 4.74-4.733v-4.277z" fill="#3a312a"/><path d="m57.932 227.45v5.777c0 3.442-2.791 6.233-6.233 6.233h-1.277c-3.442 0-6.233-2.791-6.233-6.233v-5.777z" fill="#87796f"/><path d="m51.699 240.96h-1.277c-4.265 0-7.733-3.469-7.733-7.733v-5.777c0-.829.672-1.5 1.5-1.5h13.744c.828 0 1.5.671 1.5 1.5v5.777c0 4.265-3.469 7.733-7.734 7.733zm-6.011-12.01v4.277c0 2.61 2.123 4.733 4.733 4.733h1.277c2.61 0 4.733-2.123 4.733-4.733v-4.277z" fill="#3a312a"/><path d="m26.926 173.701h34.846v53.752h-34.846z" fill="#d7e057"/><path d="m61.771 228.954h-34.844c-.828 0-1.5-.671-1.5-1.5v-53.752c0-.829.672-1.5 1.5-1.5h34.845c.828 0 1.5.671 1.5 1.5v53.752c-.001.828-.672 1.5-1.501 1.5zm-33.344-3h31.845v-50.752h-31.845z" fill="#3a312a"/><path d="m44.184 228.954c-.828 0-1.5-.671-1.5-1.5v-53.752c0-.829.672-1.5 1.5-1.5s1.5.671 1.5 1.5v53.752c0 .828-.672 1.5-1.5 1.5z" fill="#3a312a"/><path d="m61.772 126.119v47.585h-44.824v-35.442c0-3.842 1.756-7.271 4.501-9.547 1.22-1.014 2.638-1.789 4.188-2.267 1.162-.363 2.399-.561 3.677-.561h8.162v-5.144c2.3 1.657 4.658 2.638 6.892 2.638 2.267 0 4.592-.915 6.851-2.473v4.979h8.17c.817.001 1.616.084 2.383.232z" fill="#fce8cb"/><path d="m61.772 175.205h-44.824c-.828 0-1.5-.671-1.5-1.5v-35.442c0-4.144 1.838-8.045 5.044-10.702 1.391-1.155 2.973-2.011 4.703-2.545 1.332-.416 2.719-.627 4.119-.627h6.662v-3.644c0-.563.315-1.079.816-1.335.502-.256 1.103-.212 1.561.118 2.139 1.541 4.218 2.355 6.015 2.355 1.857 0 3.876-.743 6-2.208.459-.316 1.057-.353 1.549-.093.493.259.803.771.803 1.328v3.479h6.67c.885 0 1.783.087 2.668.258.705.137 1.215.754 1.215 1.473v47.585c-.001.829-.672 1.5-1.501 1.5zm-43.324-3h41.824v-44.78c-.295-.024-.59-.037-.883-.037h-8.17c-.828 0-1.5-.671-1.5-1.5v-2.354c-3.643 1.789-7.03 1.826-10.743-.098v2.453c0 .829-.672 1.5-1.5 1.5h-8.162c-1.097 0-2.184.165-3.23.492-1.355.418-2.592 1.087-3.678 1.989-2.517 2.086-3.959 5.145-3.959 8.393v33.942z" fill="#3a312a"/><path d="m44.391 133.87-.017.016-.025-.016.017-.025z" fill="#87796f"/><path d="m44.374 135.386c-.286 0-.574-.081-.826-.248-.333-.22-.577-.571-.656-.962s-.012-.806.21-1.138c.251-.376.666-.631 1.116-.674.457-.045.904.108 1.22.431.279.285.445.682.44 1.082-.005.399-.156.792-.442 1.07l-.017.016c-.288.279-.665.423-1.045.423z" fill="#3a312a"/><circle clip-rule="evenodd" cx="23.073" cy="95.463" fill="#fce8cb" fill-rule="evenodd" r="4.88"/><path d="m23.072 101.843c-3.518 0-6.38-2.862-6.38-6.38s2.862-6.38 6.38-6.38c3.517 0 6.38 2.862 6.38 6.38s-2.862 6.38-6.38 6.38zm0-9.76c-1.863 0-3.38 1.516-3.38 3.38s1.517 3.38 3.38 3.38 3.38-1.516 3.38-3.38-1.517-3.38-3.38-3.38z" fill="#3a312a"/><path clip-rule="evenodd" d="m70.545 95.463c0 2.695-2.185 4.88-4.88 4.88s-4.88-2.185-4.88-4.88 2.185-4.88 4.88-4.88 4.88 2.185 4.88 4.88z" fill="#fce8cb" fill-rule="evenodd"/><path d="m65.665 101.843c-3.518 0-6.38-2.862-6.38-6.38s2.862-6.38 6.38-6.38 6.38 2.862 6.38 6.38-2.862 6.38-6.38 6.38zm0-9.76c-1.863 0-3.38 1.516-3.38 3.38s1.517 3.38 3.38 3.38 3.38-1.516 3.38-3.38-1.517-3.38-3.38-3.38z" fill="#3a312a"/><path d="m66.002 93.094c0 11.947-11.506 30.286-21.633 30.286-9.666 0-21.633-18.339-21.633-30.286 0-11.948 9.685-21.633 21.633-21.633 11.947.001 21.633 9.686 21.633 21.633z" fill="#fce8cb"/><path d="m44.369 124.88c-10.725 0-23.133-19.235-23.133-31.786 0-12.756 10.377-23.133 23.133-23.133s23.133 10.377 23.133 23.133c0 12.84-12.186 31.786-23.133 31.786zm0-51.919c-11.101 0-20.133 9.032-20.133 20.133 0 11.837 11.854 28.786 20.133 28.786 9.14 0 20.133-17.68 20.133-28.786 0-11.101-9.031-20.133-20.133-20.133z" fill="#3a312a"/><path d="m44.618 66.687c-12.366 0-22.391 9.584-22.391 21.407 0 1.251.226 2.184.647 3.349.198.549 3.405-1.205 3.677-1.397 1.365-.961 2.481-2.264 3.315-3.704.345-.599.632-1.208.864-1.818.738-1.945 2.743-7.356 4.78-6.931 2.73.569 5.825.891 9.108.891s6.378-.322 9.108-.891c2.036-.425 4.042 4.987 4.78 6.931.231.61.519 1.219.864 1.818 1.378 2.382 3.704 4.651 6.534 5.063.007-.137.18-.183.309-.23.927-.336.797-2.338.797-3.081-.001-11.823-10.025-21.407-22.392-21.407z" fill="#87796f"/><path d="m23.045 93.035c-.187 0-.36-.022-.517-.071-.501-.158-.889-.526-1.064-1.011-.441-1.224-.736-2.349-.736-3.858 0-12.631 10.718-22.907 23.891-22.907 13.174 0 23.892 10.276 23.892 22.907l.002.228c.017 1.121.051 3.409-1.581 4.177-.024.022-.049.044-.074.065-.326.269-.751.384-1.169.326-2.917-.425-5.765-2.593-7.616-5.797-.38-.661-.705-1.345-.968-2.036l-.045-.118c-1.81-4.78-2.802-5.687-3.13-5.857-2.908.598-6.04.901-9.311.901s-6.402-.303-9.311-.901c-.328.17-1.317 1.075-3.127 5.848l-.048.126c-.264.694-.589 1.378-.966 2.034-.986 1.704-2.283 3.149-3.752 4.183-.026.017-2.709 1.761-4.37 1.761zm30.94-16.97c2.552 0 4.333 3.728 5.879 7.812l.044.116c.206.541.462 1.081.762 1.602 1.24 2.146 2.987 3.662 4.776 4.18.054-.284.076-.755.066-1.408l-.003-.272c0-10.977-9.372-19.907-20.892-19.907s-20.891 8.93-20.891 19.907c0 .611.065 1.125.186 1.632.682-.305 1.508-.737 1.8-.924 1.092-.769 2.088-1.886 2.856-3.212.296-.514.552-1.053.759-1.599l.047-.125c1.658-4.373 3.575-8.337 6.441-7.742 2.697.562 5.741.859 8.802.859 3.104 0 6.066-.289 8.803-.859.193-.041.382-.06.565-.06z" fill="#3a312a"/><path d="m38.825 92.85c0 1.166-.945 2.111-2.111 2.111s-2.111-.945-2.111-2.111.945-2.111 2.111-2.111 2.111.945 2.111 2.111z" fill="#3a312a"/><path d="m54.1 92.85c0 1.166-.945 2.111-2.111 2.111s-2.111-.945-2.111-2.111.945-2.111 2.111-2.111 2.111.945 2.111 2.111z" fill="#3a312a"/><path d="m36.131 99.128c0 1.502-1.628 2.719-3.637 2.719s-3.637-1.217-3.637-2.719 1.628-2.719 3.637-2.719c2.008 0 3.637 1.217 3.637 2.719z" fill="#f5978a"/><path d="m59.846 99.128c0 1.502-1.628 2.719-3.637 2.719s-3.637-1.217-3.637-2.719 1.629-2.719 3.637-2.719 3.637 1.217 3.637 2.719z" fill="#f5978a"/><path d="m44.325 111.745c-3.372 0-5.907-1.582-7.332-4.576-.355-.748-.038-1.643.71-1.999.748-.357 1.644-.039 1.999.71.943 1.981 2.369 2.865 4.623 2.865 2.6 0 4.159-1.643 4.573-2.747.29-.775 1.155-1.171 1.931-.878.776.291 1.169 1.155.878 1.931-.848 2.261-3.519 4.694-7.382 4.694z" fill="#3a312a"/><path d="m44.391 133.87-.017.016-.025-.016.017-.025z" fill="#d7e057"/><path d="m44.374 135.386c-.286 0-.574-.081-.826-.248-.333-.22-.577-.571-.656-.962s-.012-.806.21-1.138c.251-.376.666-.631 1.116-.674.457-.045.904.108 1.22.431.279.285.445.682.44 1.082-.005.399-.156.792-.442 1.07l-.017.016c-.288.279-.665.423-1.045.423z" fill="#3a312a"/><path d="m44.366 133.845.025.025-.017.016-.025-.016z" fill="#d7e057"/><path d="m44.362 135.38c-.283 0-.567-.079-.814-.242-.333-.22-.577-.571-.656-.962s-.012-.806.21-1.138c.251-.376.666-.631 1.116-.674.457-.045.904.108 1.22.431l.024.025c.279.285.434.67.429 1.069s-.169.78-.455 1.058c-.293.283-.683.433-1.074.433z" fill="#3a312a"/><path d="m21.938 183.677c-2.755 0-4.988-2.233-4.988-4.988v-4.988h9.976v4.988c0 2.755-2.233 4.988-4.988 4.988z" fill="#fce8cb"/><path d="m21.938 185.177c-3.578 0-6.488-2.911-6.488-6.488v-4.988c0-.829.672-1.5 1.5-1.5h9.977c.828 0 1.5.671 1.5 1.5v4.988c0 3.578-2.91 6.488-6.489 6.488zm-3.488-9.976v3.488c0 1.923 1.564 3.488 3.488 3.488s3.488-1.565 3.488-3.488v-3.488z" fill="#3a312a"/><path d="m98.352 125.996v9.901h-36.58v37.808h-44.824v-35.442c0-3.842 1.756-7.271 4.501-9.547 1.22-1.006 2.638-1.781 4.188-2.267 1.162-.354 2.399-.552 3.677-.552h2.201l-.025.016 8.492 11.27 4.394-3.298 4.378 3.298 8.491-11.27-.025-.016z" fill="#87796f"/><path d="m61.772 175.205h-44.824c-.828 0-1.5-.671-1.5-1.5v-35.442c0-4.144 1.838-8.045 5.044-10.702 1.393-1.148 2.972-2.002 4.696-2.543 1.354-.413 2.739-.621 4.126-.621h2.201c.583 0 1.107.337 1.353.851l7.411 9.837 3.197-2.399c.535-.4 1.271-.4 1.803.001l3.18 2.395 7.458-9.897c.257-.476.749-.788 1.305-.788h.004l41.13.099c.827.002 1.496.673 1.496 1.5v9.901c0 .829-.672 1.5-1.5 1.5h-35.08v36.308c0 .829-.671 1.5-1.5 1.5zm-43.324-3h41.824v-36.308c0-.829.672-1.5 1.5-1.5h35.079v-6.905l-38.847-.093-8.052 10.687c-.499.661-1.438.793-2.101.295l-3.478-2.619-3.492 2.621c-.66.497-1.601.364-2.099-.297l-8.054-10.689h-1.416c-1.09 0-2.18.164-3.239.487-1.343.421-2.582 1.092-3.672 1.99-2.513 2.082-3.955 5.141-3.955 8.389v33.942z" fill="#3a312a"/><path d="m26.927 175.202c-.828 0-1.5-.671-1.5-1.5v-33.09c0-.829.672-1.5 1.5-1.5s1.5.671 1.5 1.5v33.09c0 .829-.672 1.5-1.5 1.5z" fill="#3a312a"/><path d="m50.016 163.108-5.687 6.473-5.695-6.473 3.152-20.435h5.086z" fill="#8ac6dd"/><path d="m44.329 171.081c-.431 0-.842-.186-1.126-.509l-5.695-6.473c-.294-.334-.424-.78-.356-1.219l3.152-20.435c.113-.731.742-1.271 1.482-1.271h5.086c.74 0 1.37.54 1.482 1.272l3.144 20.435c.067.438-.062.885-.355 1.218l-5.687 6.473c-.285.323-.695.509-1.127.509zm-4.105-8.437 4.104 4.666 4.099-4.665-2.842-18.471h-2.513z" fill="#3a312a"/><path d="m48.625 133.866-1.76 8.807h-5.075l-1.719-8.807z" fill="#8ac6dd"/><path d="m46.865 144.173h-5.075c-.718 0-1.335-.508-1.473-1.213l-1.719-8.807c-.085-.439.03-.895.315-1.241s.71-.546 1.158-.546h8.554c.449 0 .875.202 1.16.549.285.348.398.805.311 1.245l-1.76 8.807c-.14.702-.756 1.206-1.471 1.206zm-3.84-3h2.61l1.16-5.807h-4.903z" fill="#3a312a"/><path d="m35.181 122.833h5.513v14.113h-5.513z" fill="#d7e057" transform="matrix(.799 -.602 .602 .799 -70.536 48.995)"/><path d="m39.984 138.685c-.455 0-.904-.206-1.199-.597l-8.494-11.271c-.239-.318-.343-.718-.287-1.112s.265-.749.583-.989l4.403-3.318c.658-.5 1.602-.367 2.101.295l8.494 11.27c.239.318.343.718.287 1.111-.056.394-.265.75-.583.989l-4.403 3.318c-.27.205-.587.304-.902.304zm-6.394-12.476 6.688 8.875 2.008-1.513-6.688-8.875z" fill="#3a312a"/><path d="m48.043 122.833h5.513v14.113h-5.513z" fill="#d7e057" transform="matrix(-.799 -.602 .602 -.799 13.191 264.194)"/><path d="m48.753 138.685c-.314 0-.632-.098-.901-.302l-4.403-3.318c-.318-.239-.527-.595-.583-.989s.048-.793.287-1.111l8.495-11.27c.498-.662 1.439-.795 2.101-.295l4.402 3.318c.662.499.794 1.439.296 2.101l-8.494 11.271c-.296.389-.745.595-1.2.595zm-2.302-5.114 2.008 1.513 6.688-8.875-2.007-1.512z" fill="#3a312a"/><path d="m102.949 131.841c-.474 0-.939-.224-1.231-.642-.474-.68-.308-1.615.372-2.088l43-30c.68-.474 1.614-.308 2.089.372.474.68.308 1.615-.372 2.088l-43 30c-.262.182-.561.27-.858.27z" fill="#3a312a"/><path d="m108.187 130.951c0 2.729-2.218 4.947-4.947 4.947h-4.889v-9.901l4.889.008c2.729-.001 4.947 2.217 4.947 4.946z" fill="#fce8cb"/><path d="m103.24 137.397h-4.889c-.828 0-1.5-.671-1.5-1.5v-9.901c0-.398.158-.78.44-1.062.281-.281.662-.438 1.06-.438h.003l4.889.008c3.552 0 6.443 2.892 6.443 6.447.001 3.554-2.891 6.446-6.446 6.446zm-3.388-3h3.389c1.9 0 3.446-1.546 3.446-3.446s-1.546-3.447-3.446-3.447l-3.389-.006z" fill="#3a312a"/><path d="m118.962 239.459v-10.755c0-6.555-5.313-11.868-11.868-11.868h-7.841v-5.096c-2.169 1.503-4.413 2.391-6.59 2.391-2.089 0-4.293-.896-6.453-2.417h-.133v5.123h-7.847c-6.555 0-11.868 5.313-11.868 11.868v10.755h52.6z" fill="#8ac5dc"/><path d="m118.962 240.96h-52.6c-.828 0-1.5-.671-1.5-1.5v-10.755c0-7.371 5.997-13.368 13.368-13.368h6.346v-3.622c0-.829.672-1.5 1.5-1.5h.133c.31 0 .611.096.863.273 2.02 1.423 3.9 2.144 5.59 2.144 1.773 0 3.703-.714 5.735-2.123.459-.319 1.057-.355 1.55-.097.495.259.805.771.805 1.329v3.596h6.342c7.371 0 13.368 5.997 13.368 13.368v10.755c0 .828-.672 1.5-1.5 1.5zm-51.1-3h49.6v-9.255c0-5.717-4.651-10.368-10.368-10.368h-7.842c-.828 0-1.5-.671-1.5-1.5v-2.473c-3.445 1.675-6.655 1.718-10.176-.069v2.542c0 .829-.672 1.5-1.5 1.5h-7.846c-5.717 0-10.368 4.651-10.368 10.368z" fill="#3a312a"/><path clip-rule="evenodd" d="m76.953 187.416c0 2.579-2.091 4.67-4.67 4.67s-4.67-2.091-4.67-4.67 2.091-4.67 4.67-4.67 4.67 2.091 4.67 4.67z" fill="#fae6ca" fill-rule="evenodd"/><path d="m72.283 193.586c-3.402 0-6.17-2.768-6.17-6.169 0-3.402 2.768-6.17 6.17-6.17s6.17 2.768 6.17 6.17c0 3.401-2.767 6.169-6.17 6.169zm0-9.34c-1.748 0-3.17 1.422-3.17 3.17s1.422 3.169 3.17 3.169 3.17-1.422 3.17-3.169-1.422-3.17-3.17-3.17z" fill="#3a312a"/><path clip-rule="evenodd" d="m117.712 187.416c0 2.579-2.091 4.67-4.67 4.67s-4.67-2.091-4.67-4.67 2.091-4.67 4.67-4.67 4.67 2.091 4.67 4.67z" fill="#fae6ca" fill-rule="evenodd"/><path d="m113.042 193.586c-3.402 0-6.17-2.768-6.17-6.169 0-3.402 2.768-6.17 6.17-6.17s6.17 2.768 6.17 6.17c0 3.401-2.768 6.169-6.17 6.169zm0-9.34c-1.748 0-3.17 1.422-3.17 3.17s1.422 3.169 3.17 3.169 3.17-1.422 3.17-3.169-1.422-3.17-3.17-3.17z" fill="#3a312a"/><path d="m113.364 185.149c0 11.433-11.011 28.982-20.702 28.982-9.25 0-20.702-17.549-20.702-28.982s9.269-20.702 20.702-20.702c11.434.001 20.702 9.269 20.702 20.702z" fill="#87796f"/><path d="m92.663 215.632c-10.294 0-22.202-18.447-22.202-30.482 0-12.242 9.96-22.202 22.202-22.202s22.201 9.959 22.201 22.202c0 12.312-11.694 30.482-22.201 30.482zm0-49.684c-10.588 0-19.202 8.614-19.202 19.202 0 11.301 11.306 27.482 19.202 27.482 8.717 0 19.201-16.88 19.201-27.482 0-10.589-8.613-19.202-19.201-19.202z" fill="#3a312a"/><path d="m76.215 240.96c-.828 0-1.5-.671-1.5-1.5v-8.5c0-.829.672-1.5 1.5-1.5s1.5.671 1.5 1.5v8.5c0 .829-.672 1.5-1.5 1.5z" fill="#3a312a"/><path d="m109.588 240.96c-.828 0-1.5-.671-1.5-1.5v-8.5c0-.829.672-1.5 1.5-1.5s1.5.671 1.5 1.5v8.5c0 .829-.672 1.5-1.5 1.5z" fill="#3a312a"/><path d="m75.15 163.899c3.514 4.425 7.718 9.143 12.795 10.586 8.177 2.325 22.651-.575 22.651-12.345 0-7.526-6.308-16.622-18.081-9.697-14.593 8.585-23.063-7.918-23.063-.392 0 2.379.958 4.752 2.217 6.91z" fill="#87796f"/><path d="m93.65 176.717c-2.216 0-4.322-.279-6.115-.789-5.39-1.532-9.702-6.238-13.56-11.096-.018-.022-.034-.045-.051-.068l-3.482-4.938c-.025-.036-.049-.072-.07-.109-1.629-2.794-2.421-5.301-2.421-7.665 0-1.157.15-2.571 1.327-3.237 1.378-.779 2.816.084 4.806 1.278 3.84 2.302 9.643 5.781 17.67 1.058 6.579-3.87 11.193-2.835 13.907-1.284 3.909 2.236 6.435 7.054 6.435 12.274 0 4.358-1.822 8.038-5.271 10.642-3.66 2.763-8.643 3.934-13.175 3.934zm-17.298-13.718c3.538 4.453 7.441 8.746 12.004 10.043 4.63 1.316 12.045.832 16.661-2.654 2.707-2.044 4.079-4.819 4.079-8.248 0-3.411-1.523-7.724-4.924-9.669-2.903-1.661-6.67-1.22-10.896 1.266-9.567 5.629-16.831 1.27-20.734-1.071-.523-.314-1.129-.677-1.584-.909-.004.087-.006.185-.006.295 0 1.805.647 3.8 1.98 6.099z" fill="#3a312a"/><path d="m239.645 228.704v10.755h-52.599v-10.755c0-6.555 5.313-11.868 11.868-11.868h7.846v-5.123h.133c2.16 1.521 4.364 2.417 6.453 2.417 2.178 0 4.422-.887 6.59-2.391v5.096h7.841c6.554.002 11.868 5.315 11.868 11.869z" fill="#d6df58"/><path d="m239.645 240.959h-52.599c-.828 0-1.5-.671-1.5-1.5v-10.754c0-7.371 5.996-13.368 13.367-13.368h6.346v-3.622c0-.829.672-1.5 1.5-1.5h.134c.31 0 .611.096.864.274 2.018 1.422 3.898 2.143 5.588 2.143 1.774 0 3.704-.714 5.736-2.123.459-.318 1.056-.354 1.55-.096.495.259.805.771.805 1.329v3.596h6.341c7.371 0 13.368 5.997 13.368 13.368v10.754c0 .828-.672 1.499-1.5 1.499zm-51.099-3h49.599v-9.254c0-5.717-4.651-10.368-10.368-10.368h-7.841c-.828 0-1.5-.671-1.5-1.5v-2.474c-3.446 1.676-6.657 1.718-10.177-.069v2.542c0 .829-.672 1.5-1.5 1.5h-7.846c-5.717 0-10.367 4.651-10.367 10.368z" fill="#3a312a"/><path clip-rule="evenodd" d="m197.636 187.416c0 2.579-2.091 4.67-4.67 4.67s-4.67-2.091-4.67-4.67 2.091-4.67 4.67-4.67 4.67 2.091 4.67 4.67z" fill="#fae6ca" fill-rule="evenodd"/><path d="m192.966 193.586c-3.402 0-6.17-2.768-6.17-6.169 0-3.402 2.768-6.17 6.17-6.17s6.17 2.768 6.17 6.17c0 3.401-2.768 6.169-6.17 6.169zm0-9.34c-1.748 0-3.17 1.422-3.17 3.17s1.422 3.169 3.17 3.169 3.17-1.422 3.17-3.169-1.422-3.17-3.17-3.17z" fill="#3a312a"/><path clip-rule="evenodd" d="m238.395 187.416c0 2.579-2.091 4.67-4.67 4.67s-4.67-2.091-4.67-4.67 2.091-4.67 4.67-4.67c2.58 0 4.67 2.091 4.67 4.67z" fill="#fae6ca" fill-rule="evenodd"/><path d="m233.726 193.586c-3.402 0-6.17-2.768-6.17-6.169 0-3.402 2.768-6.17 6.17-6.17s6.17 2.768 6.17 6.17c-.001 3.401-2.768 6.169-6.17 6.169zm0-9.34c-1.748 0-3.17 1.422-3.17 3.17s1.422 3.169 3.17 3.169 3.17-1.422 3.17-3.169c-.001-1.747-1.422-3.17-3.17-3.17z" fill="#3a312a"/><path d="m234.048 185.149c0 11.433-11.011 28.982-20.702 28.982-9.25 0-20.702-17.549-20.702-28.982s9.269-20.702 20.702-20.702c11.433.001 20.702 9.269 20.702 20.702z" fill="#87796f"/><path d="m213.346 215.632c-10.294 0-22.202-18.447-22.202-30.482 0-12.242 9.96-22.202 22.202-22.202s22.202 9.959 22.202 22.202c0 12.312-11.696 30.482-22.202 30.482zm0-49.684c-10.588 0-19.202 8.614-19.202 19.202 0 11.301 11.306 27.482 19.202 27.482 8.718 0 19.202-16.88 19.202-27.482 0-10.589-8.614-19.202-19.202-19.202z" fill="#3a312a"/><path d="m196.898 240.96c-.828 0-1.5-.671-1.5-1.5v-8.5c0-.829.672-1.5 1.5-1.5s1.5.671 1.5 1.5v8.5c0 .829-.671 1.5-1.5 1.5z" fill="#3a312a"/><path d="m230.271 240.96c-.828 0-1.5-.671-1.5-1.5v-8.5c0-.829.672-1.5 1.5-1.5s1.5.671 1.5 1.5v8.5c0 .829-.671 1.5-1.5 1.5z" fill="#3a312a"/><path clip-rule="evenodd" d="m236.302 163.267s-10.007 10.506-22.351 10.506-16.789-4.704-16.789-10.506 4.445-10.506 16.789-10.506 22.351 10.506 22.351 10.506z" fill="#87796f" fill-rule="evenodd"/><path d="m213.951 175.273c-15.914 0-18.29-7.522-18.29-12.006s2.376-12.006 18.29-12.006c12.839 0 23.01 10.523 23.436 10.971.552.58.552 1.49 0 2.069-.426.448-10.597 10.972-23.436 10.972zm0-21.012c-6.976 0-15.29 1.562-15.29 9.006s8.314 9.006 15.29 9.006c9.309 0 17.347-6.439 20.179-9.005-2.838-2.564-10.892-9.007-20.179-9.007z" fill="#3a312a"/><path d="m179.303 228.704v10.755h-52.599v-10.755c0-6.555 5.313-11.868 11.868-11.868h7.846v-5.123h.133c2.16 1.521 4.364 2.417 6.453 2.417 2.178 0 4.422-.887 6.59-2.391v5.096h7.841c6.555.002 11.868 5.315 11.868 11.869z" fill="#ef6d7a"/><path d="m179.303 240.959h-52.599c-.828 0-1.5-.671-1.5-1.5v-10.754c0-7.371 5.997-13.368 13.368-13.368h6.346v-3.622c0-.829.672-1.5 1.5-1.5h.133c.31 0 .611.096.864.274 1.989 1.402 3.922 2.143 5.589 2.143 1.773 0 3.703-.714 5.735-2.123.459-.318 1.056-.354 1.55-.096.495.259.805.771.805 1.329v3.596h6.341c7.371 0 13.368 5.997 13.368 13.368v10.754c0 .828-.672 1.499-1.5 1.499zm-51.099-3h49.599v-9.254c0-5.717-4.651-10.368-10.368-10.368h-7.841c-.828 0-1.5-.671-1.5-1.5v-2.473c-3.447 1.675-6.657 1.718-10.176-.069v2.542c0 .829-.672 1.5-1.5 1.5h-7.846c-5.717 0-10.368 4.651-10.368 10.368z" fill="#3a312a"/><path clip-rule="evenodd" d="m137.294 187.416c0 2.579-2.091 4.67-4.67 4.67s-4.67-2.091-4.67-4.67 2.091-4.67 4.67-4.67c2.58 0 4.67 2.091 4.67 4.67z" fill="#fae6ca" fill-rule="evenodd"/><path d="m132.625 193.586c-3.402 0-6.17-2.768-6.17-6.169 0-3.402 2.768-6.17 6.17-6.17 3.401 0 6.169 2.768 6.169 6.17 0 3.401-2.768 6.169-6.169 6.169zm0-9.34c-1.748 0-3.17 1.422-3.17 3.17s1.422 3.169 3.17 3.169c1.747 0 3.169-1.422 3.169-3.169s-1.422-3.17-3.169-3.17z" fill="#3a312a"/><path clip-rule="evenodd" d="m178.054 187.416c0 2.579-2.091 4.67-4.67 4.67s-4.67-2.091-4.67-4.67 2.091-4.67 4.67-4.67 4.67 2.091 4.67 4.67z" fill="#fae6ca" fill-rule="evenodd"/><path d="m173.384 193.586c-3.402 0-6.17-2.768-6.17-6.169 0-3.402 2.768-6.17 6.17-6.17s6.17 2.768 6.17 6.17c0 3.401-2.768 6.169-6.17 6.169zm0-9.34c-1.748 0-3.17 1.422-3.17 3.17s1.422 3.169 3.17 3.169 3.17-1.422 3.17-3.169-1.422-3.17-3.17-3.17z" fill="#3a312a"/><path d="m173.706 185.149c0 11.433-11.011 28.982-20.702 28.982-9.25 0-20.702-17.549-20.702-28.982s9.268-20.702 20.702-20.702c11.434.001 20.702 9.269 20.702 20.702z" fill="#87796f"/><path d="m153.004 215.632c-10.293 0-22.201-18.447-22.201-30.482 0-12.242 9.959-22.202 22.201-22.202s22.202 9.959 22.202 22.202c0 12.312-11.695 30.482-22.202 30.482zm0-49.684c-10.588 0-19.201 8.614-19.201 19.202 0 11.301 11.306 27.482 19.201 27.482 8.718 0 19.202-16.88 19.202-27.482 0-10.589-8.614-19.202-19.202-19.202z" fill="#3a312a"/><path d="m136.557 240.96c-.828 0-1.5-.671-1.5-1.5v-8.5c0-.829.672-1.5 1.5-1.5s1.5.671 1.5 1.5v8.5c0 .829-.672 1.5-1.5 1.5z" fill="#3a312a"/><path d="m169.93 240.96c-.828 0-1.5-.671-1.5-1.5v-8.5c0-.829.672-1.5 1.5-1.5s1.5.671 1.5 1.5v8.5c0 .829-.672 1.5-1.5 1.5z" fill="#3a312a"/><path d="m132.341 180.641v44.946h41.326v-44.946c0-11.412-9.251-20.663-20.663-20.663-11.412 0-20.663 9.251-20.663 20.663z" fill="#87796f"/><path d="m173.666 227.086h-41.325c-.828 0-1.5-.671-1.5-1.5v-44.946c0-12.221 9.941-22.163 22.162-22.163s22.163 9.942 22.163 22.163v44.946c0 .829-.672 1.5-1.5 1.5zm-39.825-3h38.325v-43.446c0-10.566-8.596-19.163-19.162-19.163s-19.163 8.596-19.163 19.163z" fill="#3a312a"/><path d="m238.146 137.09v8.64c0 .97-.79 1.75-1.75 1.75h-18c.96 0 1.75-.78 1.75-1.75v-8.64c0-.96-.79-1.74-1.75-1.74h18c.961 0 1.75.78 1.75 1.74z" fill="#d24e5c"/><path d="m221.607 18.04h-18c3.35 0 6.07 2.72 6.07 6.07v57.77h2.79c.83 0 1.5.67 1.5 1.5v29.08c0 .83-.67 1.5-1.5 1.5h-2.79v4.98c2.51.97 4.29 3.4 4.29 6.24v7.16h13.71v-108.23c-.001-3.35-2.721-6.07-6.07-6.07z" fill="#decaad"/></g></svg>