<?xml version="1.0"?>
<svg xmlns="http://www.w3.org/2000/svg" xmlns:xlink="http://www.w3.org/1999/xlink" xmlns:svgjs="http://svgjs.com/svgjs" version="1.1" width="512" height="512" x="0" y="0" viewBox="0 0 256 256" style="enable-background:new 0 0 512 512" xml:space="preserve" class=""><g><g xmlns="http://www.w3.org/2000/svg"><g><g><path d="m241.34 60.789.005 10.657h-24.348l-.005-10.657c-.005-4.203 3.404-7.612 7.612-7.612l9.129.005c4.203-.005 7.612 3.404 7.607 7.607z" fill="#fc5d3d" data-original="#fc5d3d" style="" class=""/></g><g><g><path d="m241.345 71.446-.005 100.938h-24.348c0-72.11-.001-49.679.005-100.938z" fill="#72c1e8" data-original="#72c1e8" style=""/></g><g><path d="m241.34 172.384-4.866 12.175h-14.617l-4.866-12.175z" fill="#f7893e" data-original="#edaf85" style="" class=""/></g><g><path d="m236.474 184.559-7.308 18.264-7.309-18.264z" fill="#7a7380" data-original="#7a7380" style="" class=""/></g></g></g><g><g><path d="m193.047 12.509h-41.263v25.134c0 5.586-4.709 10.078-10.378 9.706-5.173-.33-9.087-4.523-9.087-9.706v-1.601h-51.134v1.601c0 5.586-4.709 10.078-10.378 9.706-5.173-.33-9.087-4.853-9.087-10.037v-24.803h-41.262c-3.211 0-5.803 2.602-5.803 5.814v226.624c0 3.201 2.592 5.803 5.803 5.803h172.588c3.211 0 5.803-2.602 5.803-5.803v-226.624c.001-3.212-2.591-5.814-5.802-5.814z" fill="#ffd856" data-original="#f0c020" style="" class=""/></g><g><path d="m190.828 245h-151.009c-1.381 0-2.5-1.119-2.5-2.5s1.119-2.5 2.5-2.5h148.509v-218.491c0-1.381 1.119-2.5 2.5-2.5s2.5 1.119 2.5 2.5v220.991c0 1.381-1.119 2.5-2.5 2.5zm-161.009 0h-6.164c-1.381 0-2.5-1.119-2.5-2.5s1.119-2.5 2.5-2.5h6.164c1.381 0 2.5 1.119 2.5 2.5s-1.119 2.5-2.5 2.5z" fill="#f9e5af" data-original="#f9e5af" style="" class=""/></g><g><path d="m182.586 28.783v205.704h-151.667v-205.704h30.802v8.529c0 5.184 3.914 9.707 9.087 10.037 5.669.372 10.378-4.12 10.378-9.706v-1.601h51.134v1.601c0 5.184 3.914 9.376 9.087 9.706 5.669.372 10.378-4.12 10.378-9.706v-8.86z" fill="#efefef" data-original="#efefef" style="" class=""/></g><g><path d="m145.981 5.25h-78.457c-3.201 0-5.803 2.602-5.803 5.803v26.259c0 5.184 3.914 9.707 9.087 10.037 5.669.372 10.378-4.12 10.378-9.706v-1.601h51.134v1.601c0 5.184 3.914 9.376 9.087 9.706 5.669.372 10.378-4.12 10.378-9.706v-26.59c-.001-3.201-2.603-5.803-5.804-5.803z" fill="#7a7380" data-original="#7a7380" style="" class=""/></g><g><path d="m142.982 26.647c-1.381 0-2.5-1.119-2.5-2.5v-8.751h-56.249c-1.381 0-2.5-1.119-2.5-2.5s1.119-2.5 2.5-2.5h58.749c1.381 0 2.5 1.119 2.5 2.5v11.251c0 1.381-1.119 2.5-2.5 2.5zm-68.749-11.251h-3c-1.381 0-2.5-1.119-2.5-2.5s1.119-2.5 2.5-2.5h3c1.381 0 2.5 1.119 2.5 2.5s-1.119 2.5-2.5 2.5z" fill="#efefef" data-original="#efefef" style="" class=""/></g><g><g><path d="m97.095 109.385c0 7.875-3.6 14.905-9.252 19.544-9.336 7.641-22.701 7.648-32.045 0-5.652-4.639-9.252-11.669-9.252-19.544 0-13.969 11.318-25.288 25.275-25.288s25.274 11.319 25.274 25.288z" fill="#fc5d3d" data-original="#fc5d3d" style="" class=""/></g><g><path d="m87.843 127.409v1.52c-9.336 7.641-22.701 7.648-32.045 0v-1.52c0-7.173 5.809-12.995 12.995-12.995h6.056c7.186 0 12.994 5.821 12.994 12.995z" fill="#72c1e8" data-original="#72c1e8" style=""/></g><g><circle cx="71.821" cy="106.184" fill="#ffb69f" r="8.23" data-original="#ffb69f" style="" class=""/></g></g><g><path d="m243.84 172.38c0-127.896.009-91.766 0-111.592.004-5.588-4.519-10.106-10.094-10.106-.004 0-.008 0-.012 0l-9.131-.005c-5.571 0-10.118 4.504-10.112 10.113.009 18.744.012 3.651-.001 36.88 0 1.381 1.131 2.5 2.5 2.5 1.38 0 2.5-1.12 2.5-2.5l.01-23.725h7.166v95.94h-7.176v-52.215c0-1.38-1.12-2.5-2.5-2.5s-2.5 1.12-2.5 2.5v54.71c0 .233.064.65.205.982 6.132 15.36 3.166 7.941 12.15 30.39.836 2.09 3.806 2.09 4.643 0 13.119-32.787 12.352-30.656 12.352-31.372zm-23.153 2.506h16.958l-2.865 7.174h-11.229zm3.915-119.209c.001 0 9.141.005 9.14.005 2.817 0 5.101 2.281 5.098 5.104v.004l.004 8.155c-4.915 0-7.833 0-19.349 0l-.004-8.159c-.003-2.821 2.282-5.109 5.111-5.109zm7.064 18.268h7.174v95.94h-7.174zm-2.5 122.15-3.615-9.035h7.23z" fill="#000000" data-original="#000000" style="" class=""/><circle cx="216.99" cy="107.67" r="2.5" fill="#000000" data-original="#000000" style="" class=""/><path d="m71.233 31.219c-1.381 0-2.5 1.119-2.5 2.5v1.743c0 1.381 1.119 2.5 2.5 2.5s2.5-1.119 2.5-2.5v-1.743c0-1.381-1.119-2.5-2.5-2.5z" fill="#000000" data-original="#000000" style="" class=""/><path d="m142.271 31.219c-1.381 0-2.5 1.119-2.5 2.5v1.743c0 1.381 1.119 2.5 2.5 2.5s2.5-1.119 2.5-2.5v-1.743c0-1.381-1.119-2.5-2.5-2.5z" fill="#000000" data-original="#000000" style="" class=""/><path d="m71.69 86.6c1.38-.01 2.5-1.14 2.49-2.52-.01-1.37-1.13-2.48-2.5-2.48h-.01c-15.292.083-27.62 12.487-27.62 27.78 0 15.598 12.689 27.78 27.77 27.78s0 0 0 0c6.392 0 12.644-2.236 17.606-6.297.003-.003.006-.006.009-.009 6.456-5.3 10.164-13.127 10.154-21.475.01-7.42-2.88-14.4-8.13-19.64-.94-.95-2.59-.95-3.54 0-.97.97-.97 2.56 0 3.529.01 0 .01.01.01.01 4.3 4.311 6.67 10.03 6.67 16.101 0 5.134-1.713 10.031-4.808 13.994-1.313-4.857-4.927-8.766-9.602-10.491 1.474-1.837 2.361-4.165 2.361-6.699 0-5.916-4.813-10.729-10.73-10.729s-10.73 4.813-10.73 10.729c0 2.534.887 4.861 2.361 6.699-4.676 1.725-8.289 5.634-9.603 10.492-3.093-3.963-4.8-8.86-4.8-13.994-.008-12.49 10.152-22.72 22.642-22.78zm.131 13.854c3.16 0 5.73 2.57 5.73 5.729 0 3.16-2.57 5.73-5.73 5.73s-5.73-2.57-5.73-5.73c0-3.159 2.57-5.729 5.73-5.729zm-3.028 16.46h6.056c5.493 0 10.495 4.316 10.495 10.765-8.127 6.006-19.003 5.944-27.045.001-.001-6.434 4.987-10.766 10.494-10.766z" fill="#000000" data-original="#000000" style="" class=""/><path d="m82.38 83.68c-1.25-.52-2.75.12-3.26 1.36-.523 1.276.08 2.743 1.36 3.26 1.187.514 2.719-.021 3.26-1.36.552-1.317-.124-2.762-1.36-3.26z" fill="#000000" data-original="#000000" style="" class=""/><path d="m163.28 87.41h-45.81c-1.38 0-2.5 1.119-2.5 2.5 0 1.38 1.12 2.5 2.5 2.5h45.81c1.38 0 2.5-1.12 2.5-2.5 0-1.381-1.12-2.5-2.5-2.5z" fill="#000000" data-original="#000000" style="" class=""/><path d="m163.28 106.88h-45.81c-1.38 0-2.5 1.12-2.5 2.5s1.12 2.5 2.5 2.5h45.81c1.38 0 2.5-1.12 2.5-2.5s-1.12-2.5-2.5-2.5z" fill="#000000" data-original="#000000" style="" class=""/><path d="m165.78 128.85c0-1.38-1.12-2.5-2.5-2.5h-45.81c-1.38 0-2.5 1.12-2.5 2.5s1.12 2.5 2.5 2.5h45.81c1.38 0 2.5-1.121 2.5-2.5z" fill="#000000" data-original="#000000" style="" class=""/><path d="m120.33 161.069h-68.04c-1.38 0-2.5 1.12-2.5 2.5 0 1.37 1.12 2.5 2.5 2.5h68.04c1.38 0 2.5-1.13 2.5-2.5 0-1.38-1.12-2.5-2.5-2.5z" fill="#000000" data-original="#000000" style="" class=""/><path d="m144.38 169.04c1.009.987 2.559.96 3.54 0l11.39-11.391c.97-.97.97-2.56-.01-3.54-.94-.939-2.59-.939-3.53.011l-9.62 9.62-4.73-4.74c-.95-.94-2.59-.94-3.54 0-.989 1.009-.96 2.57 0 3.529v.011z" fill="#000000" data-original="#000000" style="" class=""/><path d="m120.33 184.31h-68.04c-1.38 0-2.5 1.12-2.5 2.5 0 1.37 1.12 2.5 2.5 2.5h68.04c1.38 0 2.5-1.13 2.5-2.5 0-1.38-1.12-2.5-2.5-2.5z" fill="#000000" data-original="#000000" style="" class=""/><path d="m159.3 177.35c-.94-.939-2.59-.939-3.53 0l-9.62 9.63-4.73-4.739c-.94-.94-2.59-.94-3.53 0-1.031 1.03-.944 2.616 0 3.539v.011l6.49 6.489c.944.945 2.516 1.004 3.54 0l11.39-11.39c.945-.945 1.008-2.521-.01-3.54z" fill="#000000" data-original="#000000" style="" class=""/><path d="m120.33 207.55h-68.04c-1.38 0-2.5 1.12-2.5 2.5 0 1.37 1.12 2.5 2.5 2.5h68.04c1.38 0 2.5-1.13 2.5-2.5 0-1.38-1.12-2.5-2.5-2.5z" fill="#000000" data-original="#000000" style="" class=""/><path d="m155.77 200.6-9.62 9.61-4.73-4.73c-.94-.939-2.59-.939-3.54 0-1.014 1.036-.938 2.613.01 3.54l6.49 6.5c.969.971 2.563.978 3.54 0l11.39-11.39c.97-.98.97-2.561 0-3.53-.95-.951-2.6-.951-3.54 0z" fill="#000000" data-original="#000000" style="" class=""/><path d="m140.37 58.24h-60.32c-1.38 0-2.5 1.119-2.5 2.5 0 1.38 1.12 2.5 2.5 2.5h60.32c1.38 0 2.5-1.12 2.5-2.5 0-1.381-1.12-2.5-2.5-2.5z" fill="#000000" data-original="#000000" style="" class=""/><path d="m193.05 10.01h-38.839c-.516-4.087-4.006-7.26-8.23-7.26h-78.457c-4.224 0-7.714 3.173-8.23 7.26h-38.834c-4.57 0-8.3 3.73-8.3 8.31v226.63c0 4.569 3.72 8.3 8.3 8.3h172.59c4.58 0 8.3-3.73 8.3-8.3v-22.16c0-1.38-1.12-2.5-2.5-2.5s-2.5 1.12-2.5 2.5v22.16c0 1.81-1.48 3.3-3.3 3.3h-172.59c-1.82 0-3.3-1.49-3.3-3.3v-226.631c0-1.819 1.48-3.31 3.3-3.31h38.761v11.27h-28.301c-1.404 0-2.5 1.146-2.5 2.5v33.881c0 1.38 1.12 2.5 2.5 2.5s2.5-1.12 2.5-2.5v-31.381h25.801v6.032c0 6.618 5.02 12.123 11.423 12.531 6.898.449 12.522-4.769 13.008-11.301h46.199c.427 6.116 5.183 10.905 11.392 11.301 7.217.481 13.042-5.284 13.042-12.2v-6.363h25.806v200.711h-146.671v-149.33c0-1.381-1.12-2.5-2.5-2.5s-2.5 1.119-2.5 2.5v151.83c0 1.355 1.099 2.5 2.5 2.5h151.67c1.357 0 2.5-1.122 2.5-2.5v-205.711c0-1.332-1.093-2.5-2.5-2.5h-28.306v-11.269h38.766c1.82 0 3.3 1.49 3.3 3.31v184.47c0 1.38 1.12 2.5 2.5 2.5s2.5-1.12 2.5-2.5v-184.471c-.01-4.579-3.73-8.309-8.3-8.309zm-51.485 34.844c-3.846-.245-6.746-3.346-6.746-7.211v-1.601c0-1.381-1.119-2.5-2.5-2.5h-51.133c-1.381 0-2.5 1.119-2.5 2.5v1.601c0 4.176-3.517 7.494-7.719 7.211-3.783-.241-6.746-3.554-6.746-7.542v-26.258c0-1.821 1.482-3.304 3.303-3.304h78.457c1.821 0 3.303 1.482 3.303 3.304v17.683c0 .015-.004.028-.004.043s.004.028.004.043v8.82c0 4.143-3.485 7.496-7.719 7.211z" fill="#000000" data-original="#000000" style="" class=""/><circle cx="198.85" cy="212.79" r="2.5" fill="#000000" data-original="#000000" style="" class=""/><circle cx="30.92" cy="72.66" r="2.5" fill="#000000" data-original="#000000" style="" class=""/></g></g></g></g></svg>
