<svg id="Capa_1" enable-background="new 0 0 512 512" height="512" viewBox="0 0 512 512" width="512" xmlns="http://www.w3.org/2000/svg"><g><path d="m293.596 443.186-8.969-27.895-.002-.001h.005l-4.18-13-25.316-23.745-23.584 23.745-13.15 40.9h24.18l.001-.004z" fill="#3f597d"/><path d="m334.005 454.84c-4.442-9.474-14.111-16.012-25.261-16.015h-93.064l-11.411 4.198c-1.488 0-24.035 8.671-24.035 22.611 0 5.52 4.48 10 10 10l132.979-1.064c5.52 0 10-4.48 10-10 0-2.059 3.243-1.876 2.818-3.809-.454-2.068-1.139-4.051-2.026-5.921z" fill="#5d748a"/><path d="m336.68 466.694c.013 5.536-4.464 10.066-10 10.066h-141.36c-5.513 0-9.996-4.466-10-9.979-.01-13.949 10.203-25.52 23.56-27.621 1.43-.22 2.89-.34 4.38-.34h12.42l-6.878 9.124c-3.974 5.271-.213 12.816 6.388 12.816h120.84c.425 1.909.645 3.897.65 5.934z" fill="#3f597d"/><path d="m504.5 361.42v20.87c0 11.05-15.258 16.113-26.309 16.113l-445.702.142c-11.05 0-20-8.95-20-20l-4.989-17.125 263.372-11.702z" fill="#5d748a"/><path d="m504.5 62.74v298.68h-490.989l-.341-297.723c0-11.05 3.28-20.957 14.33-20.957h457c11.05 0 20 8.95 20 20z" fill="#faf8f8"/><path d="m27.5 341.42v-298.68c-11.05 0-20 8.95-20 20v298.68h6.01 13.99 477v-16h-473c-2.209 0-4-1.791-4-4z" fill="#f0e9e6"/><path d="m484.5 409.79h-457c-15.164 0-27.5-12.336-27.5-27.5v-319.55c0-15.164 12.336-27.5 27.5-27.5h457c15.164 0 27.5 12.336 27.5 27.5v319.55c0 15.164-12.336 27.5-27.5 27.5zm-457-359.55c-6.893 0-12.5 5.607-12.5 12.5v319.55c0 6.893 5.607 12.5 12.5 12.5h457c6.893 0 12.5-5.607 12.5-12.5v-319.55c0-6.893-5.607-12.5-12.5-12.5z" fill="#3f597d"/><path d="m178.5 82.25 7.862 51.213-7.862 53.787-88.649-5c-11.05 0-20-8.95-20-20l-2.213-59.17c0-11.05 4.812-20.83 15.862-20.83z" fill="#aad8de"/><path d="m448.5 102.25v65c0 11.05-14.918 16.511-25.968 16.511l-234.894-1.277-9.138-15.234v-85h250c11.05 0 20 8.95 20 20z" fill="#ffbf54"/><path d="m178.5 167.25 7.862 10-7.862 10h-95c-11.046 0-20-8.954-20-20v-65c0-11.05 8.95-20 20-20v73c0 6.627 5.373 12 12 12z" fill="#94ccd4"/><path d="m448.5 167.25c0 11.05-8.95 20-20 20h-250v-20z" fill="#ffa442"/><g><g><path d="m381 157.75h-165c-4.143 0-7.5-3.357-7.5-7.5s3.357-7.5 7.5-7.5h165c4.143 0 7.5 3.357 7.5 7.5s-3.357 7.5-7.5 7.5z" fill="#ffa442"/></g><g><path d="m411 126.75h-104c-4.143 0-7.5-3.357-7.5-7.5s3.357-7.5 7.5-7.5h104c4.143 0 7.5 3.357 7.5 7.5s-3.357 7.5-7.5 7.5z" fill="#ffa442"/></g><g><path d="m277 126.75h-60.5c-4.143 0-7.5-3.357-7.5-7.5s3.357-7.5 7.5-7.5h60.5c4.143 0 7.5 3.357 7.5 7.5s-3.357 7.5-7.5 7.5z" fill="#ffa442"/></g></g><g><g><path d="m128.949 172.25c-4.143 0-7.5-3.357-7.5-7.5v-52.5h-8.398c-4.143 0-7.5-3.357-7.5-7.5s3.357-7.5 7.5-7.5h15.898c4.143 0 7.5 3.357 7.5 7.5v60c0 4.143-3.357 7.5-7.5 7.5z" fill="#faf8f8"/></g></g><g><path d="m219.54 297.75v20c0 2.76-1.12 5.26-2.93 7.07l-19.78-14.123-14.36-20.017c1.81-1.81 4.31-2.93 7.07-2.93h20c5.53 0 10 4.48 10 10z" fill="#aad8de"/><path d="m216.61 324.82c-1.81 1.81-4.31 2.93-7.07 2.93h-20c-5.52 0-10-4.48-10-10v-20c0-2.76 1.12-5.26 2.93-7.07z" fill="#94ccd4"/></g><g><path d="m391.542 227.75v20c0 2.76-1.12 5.26-2.93 7.07l-19.78-14.123-14.36-20.017c1.81-1.81 4.31-2.93 7.07-2.93h20c5.53 0 10 4.48 10 10z" fill="#aad8de"/><path d="m388.612 254.82c-1.81 1.81-4.31 2.93-7.07 2.93h-20c-5.52 0-10-4.48-10-10v-20c0-2.76 1.12-5.26 2.93-7.07z" fill="#94ccd4"/></g><g><path d="m391.542 297.75v20c0 2.76-1.12 5.26-2.93 7.07l-19.78-14.123-14.36-20.017c1.81-1.81 4.31-2.93 7.07-2.93h20c5.53 0 10 4.48 10 10z" fill="#aad8de"/><path d="m388.612 324.82c-1.81 1.81-4.31 2.93-7.07 2.93h-20c-5.52 0-10-4.48-10-10v-20c0-2.76 1.12-5.26 2.93-7.07z" fill="#94ccd4"/></g><g fill="#ffbf54"><path d="m145.012 214.686c-.025-.068-.053-.137-.081-.205-1.309-3.182-4.376-5.236-7.815-5.236-.003 0-.007 0-.01 0-3.443.003-6.511 2.065-7.814 5.253-.022.057-.045.112-.066.17l-15.775 41.42c-1.475 3.87.469 8.203 4.34 9.678 3.866 1.475 8.203-.468 9.678-4.339l2.089-5.485h14.992l2.062 5.464c1.133 3.003 3.987 4.854 7.018 4.854.88 0 1.775-.156 2.647-.485 3.875-1.462 5.831-5.789 4.368-9.665zm-9.743 26.255 1.818-4.772 1.801 4.772z"/><path d="m151.78 304.042c1.149-2.302 1.812-4.888 1.812-7.631 0-9.466-7.701-17.167-17.167-17.167h-12.204c-4.143 0-7.5 3.357-7.5 7.5v19.346.031 22.635c0 1.995.795 3.907 2.208 5.315 1.406 1.399 3.309 2.185 5.292 2.185h.033s11.211-.05 14.302-.05c10.371 0 18.809-8.438 18.809-18.809-.001-5.218-2.14-9.944-5.585-13.355zm-15.355-9.798c1.195 0 2.167.972 2.167 2.167s-.972 2.167-2.167 2.167c-.896 0-2.583.005-4.422.012h-.282v-4.346zm2.131 26.962c-1.311 0-4.077.009-6.835.02v-7.635c.073 0 .146 0 .219-.001h6.615c2.1 0 3.809 1.708 3.809 3.808s-1.709 3.808-3.808 3.808z"/><path d="m304.584 279.865h-11.547c-1.991 0-3.901.792-5.309 2.201-1.406 1.41-2.195 3.321-2.191 5.313v.028.001 40.065c0 .428.044.845.113 1.253.141 1.782.909 3.464 2.187 4.732 1.405 1.395 3.304 2.177 5.283 2.177h.028c.35-.001 8.599-.033 11.904-.091 13.614-.238 23.495-11.927 23.495-27.794.001-16.418-9.854-27.885-23.963-27.885zm.207 40.681c-1.019.018-2.562.033-4.196.046-.014-4.514-.028-9.938-.028-12.887 0-2.486-.009-8.126-.017-12.84h4.034c8.317 0 8.964 9.862 8.964 12.885 0 6.293-2.708 12.691-8.757 12.796z"/><path d="m328.981 247.079c-3.176-2.661-7.905-2.245-10.566.928-.296.354-.613.682-.946.978-1.692 1.508-3.893 2.271-6.54 2.271-7.447 0-13.506-6.059-13.506-13.506s6.059-13.506 13.506-13.506c2.708 0 5.317.796 7.547 2.302 3.432 2.317 8.095 1.417 10.413-2.017 2.318-3.433 1.416-8.095-2.017-10.413-4.719-3.188-10.231-4.872-15.943-4.872-15.718 0-28.506 12.788-28.506 28.506s12.788 28.506 28.506 28.506c6.347 0 12.059-2.1 16.513-6.066.873-.777 1.703-1.633 2.468-2.544 2.66-3.175 2.245-7.906-.929-10.567z"/></g><g><path d="m219.54 227.75v20c0 2.76-1.12 5.26-2.93 7.07l-19.78-14.123-14.36-20.017c1.81-1.81 4.31-2.93 7.07-2.93h20c5.53 0 10 4.48 10 10z" fill="#aad8de"/><path d="m216.61 254.82c-1.81 1.81-4.31 2.93-7.07 2.93h-20c-5.52 0-10-4.48-10-10v-20c0-2.76 1.12-5.26 2.93-7.07z" fill="#94ccd4"/></g></g></svg>